<svg id="google-icon" xmlns="http://www.w3.org/2000/svg" width="31.499" height="32.142" viewBox="0 0 31.499 32.142">
  <path id="Shape" d="M15.428,3.286A13.772,13.772,0,0,0,15.089,0H0V5.964H8.857a7.854,7.854,0,0,1-3.286,5.214l-.03.2,4.771,3.7.331.033A15.713,15.713,0,0,0,15.428,3.286" transform="translate(16.071 13.143)" fill="#4285f4"/>
  <path id="Shape-2" data-name="Shape" d="M14.357,12.893A15.318,15.318,0,0,0,25,9L19.928,5.071a9.512,9.512,0,0,1-5.571,1.607A9.675,9.675,0,0,1,5.214,0L5.026.016.065,3.855,0,4.036a16.059,16.059,0,0,0,14.357,8.857" transform="translate(1.714 19.25)" fill="#34a853"/>
  <path id="Shape-3" data-name="Shape" d="M6.928,10.471a9.894,9.894,0,0,1-.536-3.179A10.4,10.4,0,0,1,6.91,4.114L6.9,3.9,1.879,0,1.714.078a16.037,16.037,0,0,0,0,14.428l5.214-4.036" transform="translate(0 8.779)" fill="#fbbc05"/>
  <path id="Shape-4" data-name="Shape" d="M14.357,6.214a8.907,8.907,0,0,1,6.214,2.393l4.536-4.428A15.441,15.441,0,0,0,14.357,0,16.059,16.059,0,0,0,0,8.857l5.2,4.036a9.715,9.715,0,0,1,9.161-6.678" transform="translate(1.714)" fill="#eb4335"/>
</svg>
