<svg xmlns="http://www.w3.org/2000/svg" width="72.261" height="50.013" viewBox="0 0 72.261 50.013">
  <g id="Group_12" data-name="Group 12" transform="translate(679.795 -739.091)">
    <path id="Path_25" data-name="Path 25" d="M-640.595,750.492h-24.279a1.417,1.417,0,0,1-1.417-1.417,1.416,1.416,0,0,1,1.417-1.417h24.279a1.416,1.416,0,0,1,1.417,1.417A1.417,1.417,0,0,1-640.595,750.492Z" fill="#fff"/>
    <path id="Path_26" data-name="Path 26" d="M-608.951,761.5h-34.372a1.417,1.417,0,0,1-1.418-1.417,1.417,1.417,0,0,1,1.418-1.417h34.372a1.417,1.417,0,0,1,1.417,1.417A1.416,1.416,0,0,1-608.951,761.5Z" fill="#fff"/>
    <path id="Path_27" data-name="Path 27" d="M-625.591,769.68h-17.732a1.417,1.417,0,0,1-1.418-1.417,1.417,1.417,0,0,1,1.418-1.417h17.732a1.416,1.416,0,0,1,1.417,1.417A1.416,1.416,0,0,1-625.591,769.68Z" fill="#fff"/>
    <path id="Path_28" data-name="Path 28" d="M-637.049,777.858h-17.732a1.416,1.416,0,0,1-1.417-1.417,1.417,1.417,0,0,1,1.417-1.417h17.732a1.417,1.417,0,0,1,1.418,1.417A1.417,1.417,0,0,1-637.049,777.858Z" fill="#fff"/>
    <path id="Path_29" data-name="Path 29" d="M-608.951,789.1h-69.426a1.416,1.416,0,0,1-1.418-1.416v-47.18a1.417,1.417,0,0,1,1.418-1.417,1.417,1.417,0,0,1,1.417,1.417v45.763h68.009a1.416,1.416,0,0,1,1.417,1.417A1.416,1.416,0,0,1-608.951,789.1Z" fill="#fff"/>
    <path id="Path_30" data-name="Path 30" d="M-608.951,740.507" fill="none" stroke="#fff" stroke-linecap="round" stroke-linejoin="round" stroke-width="2.835"/>
    <path id="Path_31" data-name="Path 31" d="M-671.625,780.061a1.417,1.417,0,0,1-1.418-1.417V768.263a1.417,1.417,0,0,1,1.418-1.417,1.416,1.416,0,0,1,1.417,1.417v10.381A1.417,1.417,0,0,1-671.625,780.061Z" fill="#fff"/>
    <path id="Path_32" data-name="Path 32" d="M-671.625,760.874a1.417,1.417,0,0,1-1.418-1.417V749.075a1.417,1.417,0,0,1,1.418-1.417,1.417,1.417,0,0,1,1.417,1.417v10.382A1.417,1.417,0,0,1-671.625,760.874Z" fill="#fff"/>
  </g>
</svg>
