<svg xmlns="http://www.w3.org/2000/svg" width="47.66" height="56.938" viewBox="0 0 47.66 56.938">
  <g id="Group_11" data-name="Group 11" transform="translate(673.608 -628.245)">
    <path id="Path_18" data-name="Path 18" d="M-627.365,685.183H-672.19a1.418,1.418,0,0,1-1.418-1.418v-54.1a1.417,1.417,0,0,1,1.418-1.417h44.825a1.416,1.416,0,0,1,1.417,1.417v54.1A1.417,1.417,0,0,1-627.365,685.183Zm-43.408-2.835h41.99V631.08h-41.99Z" fill="#fff"/>
    <path id="Path_19" data-name="Path 19" d="M-661.37,643.643h-3.063a1.418,1.418,0,0,1-1.418-1.417,1.418,1.418,0,0,1,1.418-1.418h3.063a1.418,1.418,0,0,1,1.417,1.418A1.418,1.418,0,0,1-661.37,643.643Z" fill="#fff"/>
    <path id="Path_20" data-name="Path 20" d="M-661.37,658.131H-664.5a1.417,1.417,0,0,1-1.418-1.417A1.418,1.418,0,0,1-664.5,655.3h3.129a1.418,1.418,0,0,1,1.417,1.418A1.417,1.417,0,0,1-661.37,658.131Z" fill="#fff"/>
    <path id="Path_21" data-name="Path 21" d="M-661.37,672.8H-664.5a1.417,1.417,0,0,1-1.418-1.417,1.418,1.418,0,0,1,1.418-1.418h3.129a1.418,1.418,0,0,1,1.417,1.418A1.417,1.417,0,0,1-661.37,672.8Z" fill="#fff"/>
    <path id="Path_22" data-name="Path 22" d="M-634.272,643.643h-18.784a1.418,1.418,0,0,1-1.417-1.417,1.418,1.418,0,0,1,1.417-1.418h18.784a1.418,1.418,0,0,1,1.417,1.418A1.418,1.418,0,0,1-634.272,643.643Z" fill="#fff"/>
    <path id="Path_23" data-name="Path 23" d="M-634.272,658.131h-19.187a1.417,1.417,0,0,1-1.418-1.417,1.418,1.418,0,0,1,1.418-1.418h19.187a1.418,1.418,0,0,1,1.417,1.418A1.417,1.417,0,0,1-634.272,658.131Z" fill="#fff"/>
    <path id="Path_24" data-name="Path 24" d="M-634.272,672.8h-19.187a1.417,1.417,0,0,1-1.418-1.417,1.418,1.418,0,0,1,1.418-1.418h19.187a1.418,1.418,0,0,1,1.417,1.418A1.417,1.417,0,0,1-634.272,672.8Z" fill="#fff"/>
  </g>
</svg>
