<svg id="Layer_1" data-name="Layer 1" xmlns="http://www.w3.org/2000/svg" viewBox="0 0 60.88 61.37">
  <path style="fill: #fff;" d="M280.26,240.72l-29-21.5a1.41,1.41,0,0,0-1.68,0l-29,21.5a1.42,1.42,0,1,0,1.68,2.28l1.52-1.13v37a1.42,1.42,0,0,0,1.42,1.41h50.48a1.41,1.41,0,0,0,1.42-1.41v-37l1.52,1.13a1.46,1.46,0,0,0,.84.28,1.42,1.42,0,0,0,.85-2.56Zm-6-.61v37.37H226.57V240.11a1.55,1.55,0,0,0,0-.31l23.86-17.68,23.86,17.68A1.55,1.55,0,0,0,274.22,240.11Z" transform="translate(-219.95 -218.94)"/>
</svg>
