<svg xmlns="http://www.w3.org/2000/svg" width="30.837" height="30.837" viewBox="0 0 30.837 30.837">
  <path id="Icon_metro-plus" data-name="Icon metro-plus" d="M32.444,13.492h-10.6V2.892a.964.964,0,0,0-.964-.964H15.1a.964.964,0,0,0-.964.964v10.6H3.534a.964.964,0,0,0-.964.964v5.782a.964.964,0,0,0,.964.964h10.6V31.8a.964.964,0,0,0,.964.964H20.88a.964.964,0,0,0,.964-.964V21.2h10.6a.964.964,0,0,0,.964-.964V14.456A.964.964,0,0,0,32.444,13.492Z" transform="translate(-2.571 -1.928)" fill="#fff"/>
</svg>
